<mxfile host="app.diagrams.net" modified="2021-09-22T08:05:04.635Z" agent="5.0 (Windows NT 10.0; Win64; x64) AppleWebKit/537.36 (KHTML, like Gecko) Chrome/93.0.4577.82 Safari/537.36" etag="VFqrcjhbpCMvF_Ecyarp" version="15.0.6" type="github">
  <diagram id="T7UnSUfDy94k-KPfjNL-" name="Page-1">
    <mxGraphModel dx="1874" dy="2528" grid="1" gridSize="10" guides="1" tooltips="1" connect="1" arrows="1" fold="1" page="1" pageScale="1" pageWidth="1100" pageHeight="1700" math="0" shadow="0">
      <root>
        <mxCell id="0" />
        <mxCell id="1" parent="0" />
        <mxCell id="hyRuqCsfAteC8NU2zmLs-1" value="" style="swimlane;startSize=0;strokeWidth=3;opacity=50;" parent="1" vertex="1">
          <mxGeometry x="390" y="-30" width="1230" height="660" as="geometry">
            <mxRectangle x="320" y="-30" width="50" height="40" as="alternateBounds" />
          </mxGeometry>
        </mxCell>
        <mxCell id="hyRuqCsfAteC8NU2zmLs-2" value="POD" style="text;html=1;strokeColor=none;fillColor=none;align=center;verticalAlign=middle;whiteSpace=wrap;rounded=0;opacity=50;" parent="hyRuqCsfAteC8NU2zmLs-1" vertex="1">
          <mxGeometry x="1060" y="380" width="40" height="20" as="geometry" />
        </mxCell>
        <mxCell id="hyRuqCsfAteC8NU2zmLs-3" value="" style="swimlane;startSize=0;strokeWidth=3;opacity=50;" parent="hyRuqCsfAteC8NU2zmLs-1" vertex="1">
          <mxGeometry x="90" y="70" width="1110" height="540" as="geometry" />
        </mxCell>
        <mxCell id="hyRuqCsfAteC8NU2zmLs-4" value="&lt;b style=&quot;font-size: 17px&quot;&gt;&lt;span&gt;Ingress&lt;/span&gt;&lt;/b&gt;" style="shape=trapezoid;perimeter=trapezoidPerimeter;whiteSpace=wrap;html=1;fixedSize=1;direction=north;" parent="hyRuqCsfAteC8NU2zmLs-3" vertex="1">
          <mxGeometry x="510" y="230" width="70" height="110" as="geometry" />
        </mxCell>
        <mxCell id="hyRuqCsfAteC8NU2zmLs-5" value="&lt;b&gt;&lt;font style=&quot;font-size: 15px&quot;&gt;ARTA-UI&lt;/font&gt;&lt;/b&gt;" style="whiteSpace=wrap;html=1;aspect=fixed;" parent="hyRuqCsfAteC8NU2zmLs-3" vertex="1">
          <mxGeometry x="970" y="130" width="110" height="110" as="geometry" />
        </mxCell>
        <mxCell id="hyRuqCsfAteC8NU2zmLs-6" value="&lt;span&gt;Service&lt;/span&gt;&lt;br&gt;&lt;span&gt;(ClusterIP)&lt;/span&gt;" style="rounded=0;whiteSpace=wrap;html=1;" parent="hyRuqCsfAteC8NU2zmLs-3" vertex="1">
          <mxGeometry x="900" y="130" width="70" height="110" as="geometry" />
        </mxCell>
        <mxCell id="hyRuqCsfAteC8NU2zmLs-7" value="Service&lt;br&gt;(ClusterIP)" style="rounded=0;whiteSpace=wrap;html=1;" parent="hyRuqCsfAteC8NU2zmLs-3" vertex="1">
          <mxGeometry x="900" y="310" width="70" height="110" as="geometry" />
        </mxCell>
        <mxCell id="hyRuqCsfAteC8NU2zmLs-8" value="&lt;b&gt;&lt;font style=&quot;font-size: 15px&quot;&gt;ARTA-API&lt;/font&gt;&lt;/b&gt;" style="whiteSpace=wrap;html=1;aspect=fixed;" parent="hyRuqCsfAteC8NU2zmLs-3" vertex="1">
          <mxGeometry x="970" y="310" width="110" height="110" as="geometry" />
        </mxCell>
        <mxCell id="hyRuqCsfAteC8NU2zmLs-9" value="" style="edgeStyle=elbowEdgeStyle;elbow=horizontal;endArrow=classic;html=1;strokeWidth=3;entryX=0;entryY=0.5;entryDx=0;entryDy=0;exitX=0.25;exitY=1;exitDx=0;exitDy=0;" parent="hyRuqCsfAteC8NU2zmLs-3" source="hyRuqCsfAteC8NU2zmLs-4" target="hyRuqCsfAteC8NU2zmLs-7" edge="1">
          <mxGeometry width="50" height="50" relative="1" as="geometry">
            <mxPoint x="190" y="310" as="sourcePoint" />
            <mxPoint x="190" y="270" as="targetPoint" />
            <Array as="points">
              <mxPoint x="820" y="340" />
            </Array>
          </mxGeometry>
        </mxCell>
        <mxCell id="hyRuqCsfAteC8NU2zmLs-10" value="" style="edgeStyle=elbowEdgeStyle;elbow=horizontal;endArrow=classic;html=1;strokeWidth=3;entryX=0;entryY=0.5;entryDx=0;entryDy=0;exitX=0.75;exitY=1;exitDx=0;exitDy=0;" parent="hyRuqCsfAteC8NU2zmLs-3" source="hyRuqCsfAteC8NU2zmLs-4" target="hyRuqCsfAteC8NU2zmLs-6" edge="1">
          <mxGeometry width="50" height="50" relative="1" as="geometry">
            <mxPoint x="-290" y="250" as="sourcePoint" />
            <mxPoint x="-240" y="200" as="targetPoint" />
            <Array as="points">
              <mxPoint x="820" y="210" />
            </Array>
          </mxGeometry>
        </mxCell>
        <mxCell id="hyRuqCsfAteC8NU2zmLs-11" value="&lt;font size=&quot;3&quot;&gt;&lt;b&gt;Traefik Controller&lt;/b&gt;&lt;/font&gt;" style="rounded=0;whiteSpace=wrap;html=1;" parent="hyRuqCsfAteC8NU2zmLs-3" vertex="1">
          <mxGeometry y="200" width="90" height="160" as="geometry" />
        </mxCell>
        <mxCell id="hyRuqCsfAteC8NU2zmLs-12" value="" style="shape=trapezoid;perimeter=trapezoidPerimeter;whiteSpace=wrap;html=1;fixedSize=1;direction=north;" parent="hyRuqCsfAteC8NU2zmLs-3" vertex="1">
          <mxGeometry x="90" y="210" width="80" height="140" as="geometry" />
        </mxCell>
        <mxCell id="hyRuqCsfAteC8NU2zmLs-13" value="&lt;font style=&quot;font-size: 18px&quot;&gt;&lt;b&gt;Ingress&lt;/b&gt;&lt;/font&gt;" style="text;html=1;strokeColor=none;fillColor=none;align=center;verticalAlign=middle;whiteSpace=wrap;rounded=0;" parent="hyRuqCsfAteC8NU2zmLs-3" vertex="1">
          <mxGeometry x="100" y="250" width="60" height="60" as="geometry" />
        </mxCell>
        <mxCell id="hyRuqCsfAteC8NU2zmLs-14" value="" style="whiteSpace=wrap;html=1;aspect=fixed;" parent="hyRuqCsfAteC8NU2zmLs-3" vertex="1">
          <mxGeometry x="380" y="215" width="130" height="130" as="geometry" />
        </mxCell>
        <mxCell id="hyRuqCsfAteC8NU2zmLs-15" value="" style="endArrow=classic;html=1;exitX=0.5;exitY=1;exitDx=0;exitDy=0;entryX=0;entryY=0.5;entryDx=0;entryDy=0;strokeWidth=3;" parent="hyRuqCsfAteC8NU2zmLs-3" source="hyRuqCsfAteC8NU2zmLs-12" target="hyRuqCsfAteC8NU2zmLs-14" edge="1">
          <mxGeometry width="50" height="50" relative="1" as="geometry">
            <mxPoint x="230" y="300" as="sourcePoint" />
            <mxPoint x="280" y="250" as="targetPoint" />
          </mxGeometry>
        </mxCell>
        <mxCell id="hyRuqCsfAteC8NU2zmLs-16" value="&lt;font style=&quot;font-size: 14px&quot;&gt;&lt;b&gt;Namespace: arta-app-xsp&lt;/b&gt;&lt;/font&gt;" style="text;html=1;strokeColor=none;fillColor=none;align=center;verticalAlign=middle;whiteSpace=wrap;rounded=0;" parent="hyRuqCsfAteC8NU2zmLs-3" vertex="1">
          <mxGeometry x="-10" y="70" width="220" height="30" as="geometry" />
        </mxCell>
        <mxCell id="hyRuqCsfAteC8NU2zmLs-17" value="&lt;font style=&quot;font-size: 24px&quot;&gt;&lt;b&gt;I3&lt;/b&gt;&lt;/font&gt;" style="text;html=1;strokeColor=none;fillColor=none;align=center;verticalAlign=middle;whiteSpace=wrap;rounded=0;" parent="hyRuqCsfAteC8NU2zmLs-3" vertex="1">
          <mxGeometry x="380" y="245" width="120" height="70" as="geometry" />
        </mxCell>
        <mxCell id="hyRuqCsfAteC8NU2zmLs-18" value="&lt;font style=&quot;font-size: 14px&quot;&gt;service: arta-ui&lt;/font&gt;" style="text;html=1;strokeColor=none;fillColor=none;align=center;verticalAlign=middle;whiteSpace=wrap;rounded=0;" parent="hyRuqCsfAteC8NU2zmLs-3" vertex="1">
          <mxGeometry x="640" y="230" width="120" height="20" as="geometry" />
        </mxCell>
        <mxCell id="hyRuqCsfAteC8NU2zmLs-19" value="&lt;font style=&quot;font-size: 14px&quot;&gt;path: /&lt;/font&gt;" style="text;html=1;strokeColor=none;fillColor=none;align=center;verticalAlign=middle;whiteSpace=wrap;rounded=0;" parent="hyRuqCsfAteC8NU2zmLs-3" vertex="1">
          <mxGeometry x="210" y="250" width="70" height="20" as="geometry" />
        </mxCell>
        <mxCell id="hyRuqCsfAteC8NU2zmLs-20" value="&lt;font style=&quot;font-size: 14px&quot;&gt;service: text-caddy&lt;/font&gt;" style="text;html=1;strokeColor=none;fillColor=none;align=center;verticalAlign=middle;whiteSpace=wrap;rounded=0;" parent="hyRuqCsfAteC8NU2zmLs-3" vertex="1">
          <mxGeometry x="185" y="290" width="120" height="20" as="geometry" />
        </mxCell>
        <mxCell id="hyRuqCsfAteC8NU2zmLs-21" value="&lt;font style=&quot;font-size: 14px&quot;&gt;service: arta-api&lt;/font&gt;" style="text;html=1;strokeColor=none;fillColor=none;align=center;verticalAlign=middle;whiteSpace=wrap;rounded=0;" parent="hyRuqCsfAteC8NU2zmLs-3" vertex="1">
          <mxGeometry x="640" y="350" width="120" height="20" as="geometry" />
        </mxCell>
        <mxCell id="hyRuqCsfAteC8NU2zmLs-22" value="" style="html=1;dashed=0;whitespace=wrap;fillColor=#2875E2;strokeColor=#ffffff;points=[[0.005,0.63,0],[0.1,0.2,0],[0.9,0.2,0],[0.5,0,0],[0.995,0.63,0],[0.72,0.99,0],[0.5,1,0],[0.28,0.99,0]];shape=mxgraph.kubernetes.icon;prIcon=pod" parent="hyRuqCsfAteC8NU2zmLs-3" vertex="1">
          <mxGeometry x="1040" y="310" width="30" height="30" as="geometry" />
        </mxCell>
        <mxCell id="hyRuqCsfAteC8NU2zmLs-23" value="" style="html=1;dashed=0;whitespace=wrap;fillColor=#2875E2;strokeColor=#ffffff;points=[[0.005,0.63,0],[0.1,0.2,0],[0.9,0.2,0],[0.5,0,0],[0.995,0.63,0],[0.72,0.99,0],[0.5,1,0],[0.28,0.99,0]];shape=mxgraph.kubernetes.icon;prIcon=node" parent="hyRuqCsfAteC8NU2zmLs-3" vertex="1">
          <mxGeometry x="30" y="10" width="40" height="40" as="geometry" />
        </mxCell>
        <mxCell id="hyRuqCsfAteC8NU2zmLs-24" value="" style="html=1;dashed=0;whitespace=wrap;fillColor=#2875E2;strokeColor=#ffffff;points=[[0.005,0.63,0],[0.1,0.2,0],[0.9,0.2,0],[0.5,0,0],[0.995,0.63,0],[0.72,0.99,0],[0.5,1,0],[0.28,0.99,0]];shape=mxgraph.kubernetes.icon;prIcon=pod" parent="hyRuqCsfAteC8NU2zmLs-3" vertex="1">
          <mxGeometry x="390" y="215" width="30" height="30" as="geometry" />
        </mxCell>
        <mxCell id="hyRuqCsfAteC8NU2zmLs-27" value="&lt;font style=&quot;font-size: 14px&quot;&gt;path: /arta&lt;/font&gt;" style="text;html=1;strokeColor=none;fillColor=none;align=center;verticalAlign=middle;whiteSpace=wrap;rounded=0;" parent="hyRuqCsfAteC8NU2zmLs-3" vertex="1">
          <mxGeometry x="660" y="320" width="70" height="20" as="geometry" />
        </mxCell>
        <mxCell id="hyRuqCsfAteC8NU2zmLs-25" value="" style="outlineConnect=0;fontColor=#232F3E;gradientColor=none;fillColor=#A166FF;strokeColor=none;dashed=0;verticalLabelPosition=bottom;verticalAlign=top;align=center;html=1;fontSize=12;fontStyle=0;aspect=fixed;pointerEvents=1;shape=mxgraph.aws4.cluster;direction=east;" parent="hyRuqCsfAteC8NU2zmLs-1" vertex="1">
          <mxGeometry x="40" y="10" width="40" height="40" as="geometry" />
        </mxCell>
        <mxCell id="hyRuqCsfAteC8NU2zmLs-26" value="&lt;font style=&quot;font-size: 14px&quot;&gt;path: /&lt;/font&gt;" style="text;html=1;strokeColor=none;fillColor=none;align=center;verticalAlign=middle;whiteSpace=wrap;rounded=0;" parent="1" vertex="1">
          <mxGeometry x="1140" y="240" width="70" height="20" as="geometry" />
        </mxCell>
        <mxCell id="hyRuqCsfAteC8NU2zmLs-28" value="" style="outlineConnect=0;dashed=0;verticalLabelPosition=bottom;verticalAlign=top;align=center;html=1;shape=mxgraph.aws3.internet_gateway;fillColor=#F58534;gradientColor=none;" parent="1" vertex="1">
          <mxGeometry x="30" y="284" width="70" height="72" as="geometry" />
        </mxCell>
        <mxCell id="hyRuqCsfAteC8NU2zmLs-29" value="" style="html=1;dashed=0;whitespace=wrap;fillColor=#2875E2;strokeColor=#ffffff;points=[[0.005,0.63,0],[0.1,0.2,0],[0.9,0.2,0],[0.5,0,0],[0.995,0.63,0],[0.72,0.99,0],[0.5,1,0],[0.28,0.99,0]];shape=mxgraph.kubernetes.icon;prIcon=pod" parent="1" vertex="1">
          <mxGeometry x="1520" y="170" width="30" height="30" as="geometry" />
        </mxCell>
        <mxCell id="hyRuqCsfAteC8NU2zmLs-30" value="" style="html=1;dashed=0;whitespace=wrap;fillColor=#2875E2;strokeColor=#ffffff;points=[[0.005,0.63,0],[0.1,0.2,0],[0.9,0.2,0],[0.5,0,0],[0.995,0.63,0],[0.72,0.99,0],[0.5,1,0],[0.28,0.99,0]];shape=mxgraph.kubernetes.icon;prIcon=pod" parent="1" vertex="1">
          <mxGeometry x="490" y="245" width="30" height="30" as="geometry" />
        </mxCell>
        <mxCell id="hyRuqCsfAteC8NU2zmLs-31" value="" style="endArrow=classic;html=1;strokeWidth=3;exitX=1;exitY=0.5;exitDx=0;exitDy=0;exitPerimeter=0;entryX=0;entryY=0.5;entryDx=0;entryDy=0;" parent="1" source="hyRuqCsfAteC8NU2zmLs-28" target="hyRuqCsfAteC8NU2zmLs-11" edge="1">
          <mxGeometry width="50" height="50" relative="1" as="geometry">
            <mxPoint x="160" y="330" as="sourcePoint" />
            <mxPoint x="880" y="230" as="targetPoint" />
          </mxGeometry>
        </mxCell>
        <mxCell id="hyRuqCsfAteC8NU2zmLs-32" value="&lt;font style=&quot;font-size: 14px&quot;&gt;&lt;b&gt;https://repa-dev.dhc.corpintra.net&lt;/b&gt;&lt;/font&gt;" style="text;html=1;strokeColor=none;fillColor=none;align=center;verticalAlign=middle;whiteSpace=wrap;rounded=0;" parent="1" vertex="1">
          <mxGeometry x="130" y="284" width="240" height="20" as="geometry" />
        </mxCell>
      </root>
    </mxGraphModel>
  </diagram>
</mxfile>
